<?xml version="1.0" encoding="UTF-8"?><svg id="Capa_2" xmlns="http://www.w3.org/2000/svg" viewBox="0 0 130 130"><defs><style>.cls-1{fill:#f5f2ed;}.cls-2{fill:#83c0e8;}</style></defs><g id="Capa_1-2"><rect class="cls-2" width="130" height="130" rx="24.61" ry="24.61"/><path class="cls-1" d="M31.13,38.27c0-.4.16-.65.57-.65,3.07-.08,9.04-.24,14.94-.24,15.67,0,21.48,8.72,21.48,17.6,0,12.84-9.93,18.41-22.13,18.41h-5.09v16.56c0,.4-.16.65-.65.65h-8.48c-.4,0-.65-.16-.65-.57v-51.76h0ZM40.9,64.75c1.37.08,2.42.08,5.09.08,6.78,0,12.52-2.26,12.52-9.61,0-5.89-4.2-9.37-11.63-9.37-2.83,0-5.09.08-5.98.16v18.73h0Z"/><path class="cls-1" d="M89.75,57.81c-4.28,0-5.73,1.78-5.73,3.47s1.21,2.99,6.38,5.01c9.21,3.39,12.36,7.03,12.36,12.76,0,7.59-5.98,12.36-15.91,12.36-4.76,0-8.96-.89-11.39-2.26-.4-.24-.57-.4-.57-.89v-7.67c0-.4.32-.57.65-.4,3.47,2.26,7.91,3.23,11.55,3.23,4.2,0,6.22-1.45,6.22-3.55s-1.53-3.31-6.54-5.33c-8.8-3.23-11.95-6.86-11.95-12.68,0-6.14,5.01-11.87,15.1-11.87,4.68,0,8.24.65,10.17,1.62.4.24.48.57.48.97v7.1c0,.4-.24.65-.73.48-2.5-1.37-6.54-2.34-10.09-2.34h0Z"/></g></svg>