<?xml version="1.0" encoding="UTF-8"?><svg id="Capa_2" xmlns="http://www.w3.org/2000/svg" viewBox="0 0 130 130"><defs><style>.cls-1{fill:#f5f2ed;}.cls-2{fill:#83c0e8;}</style></defs><g id="Capa_1-2"><rect class="cls-2" width="130" height="130" rx="24.61" ry="24.61"/><path class="cls-1" d="M54.12,101.44c-.15,1.27-1.24,3.34-2.76,3.13s-5.57-2.32-7.02-3.12c-27.98-15.54-29.19-55.9-2.15-73.07,29.9-19,67.96,4.33,65.47,39.42-1.11,15.62-12.69,31.4-27.63,36.41-1.61.54-2.55.52-3.37-1.24-1.15-2.43-.19-9.76-.47-12.91-.37-4.22-4.27-10.48-8.86-10.95l6.15-.81c5.42-1.09,10.52-3.59,13.5-8.38,5.54-.23,11.02.55,16.53,1.06l.18-1.81c-5.23-.54-10.46-1.24-15.74-1.09l.66-2,15.44.19v-1.81c-5.07-.32-10.12-.47-15.2-.18.44-3.14.27-6.08-1.05-8.99-.27-.6-1.63-2.62-1.66-2.87-.08-.78.98-3.93,1.08-5.24.11-1.51.13-5.92-1.34-6.79-.89-.53-3.85.21-4.9.55-2.07.68-3.78,1.94-5.6,3.07-5.19-2.14-10.86-2.45-16.34-1.31-.77.16-4.17,1.34-4.42,1.3-.38-.06-1.82-1.31-2.36-1.63-1.82-1.07-4.6-2.08-6.72-2.15-1.38-.04-1.71.36-2.17,1.64-.83,2.3-.43,5.26-.04,7.63.11.71.72,2.41.67,2.94-.03.3-1.38,2.27-1.66,2.87-1.31,2.88-1.73,6.03-1.24,9.17-4.93.1-9.95-.28-14.81.39-.09.31-.06,1.72.27,1.8l4.49-.38c3.5.05,7-.1,10.48.18.09.33.83,1.66.21,1.64-2.11-.03-4.23.03-6.33.18-1.04.08-8.52.73-8.77,1.09-.08.12.35,1.44.18,1.8,5.35-.79,10.75-1.36,16.16-1.24,4.12,6.63,12.41,8.95,19.84,9.02l-1.87.75c-1.9.64-2.88,2.6-4.18,3.78-.78.71-2.73.96-3.81,1.07-1.8.19-5.07.37-6.75-.12-3.55-1.04-6.07-6.94-9.35-7.12-2.69-.15.1,1.62.73,2.36,2.47,2.92,2.59,8.14,6.12,9.8.27.13,1.86.69,2.02.69h8.41v11.31h0Z"/></g></svg>