<?xml version="1.0" encoding="UTF-8"?><svg id="Capa_2" xmlns="http://www.w3.org/2000/svg" viewBox="0 0 130 130"><defs><style>.cls-1{fill:#f5f2ed;}.cls-2{fill:#f196bf;}</style></defs><g id="Capa_1-2"><rect class="cls-2" width="130" height="130" rx="24.61" ry="24.61"/><path class="cls-1" d="M48.16,89.87c0,.57-.16.73-.65.73h-8.48c-.48,0-.65-.24-.65-.73v-51.68c0-.57.24-.65.65-.65h8.48c.48,0,.65.16.65.65v51.68Z"/><path class="cls-1" d="M56.32,71.05c0-11.71,8.72-21.08,22.93-21.08,1.13,0,2.1.08,3.47.24v-16.56c0-.4.16-.57.48-.57h8.8c.4,0,.4.16.4.48v48.77c0,1.62.16,3.72.32,5.17,0,.4-.08.57-.48.73-5.25,2.26-10.42,3.15-15.26,3.15-11.71,0-20.67-6.78-20.67-20.35h0ZM82.72,58.7c-1.05-.4-2.34-.57-3.79-.57-7.19,0-12.6,4.6-12.6,12.44,0,8.8,5.25,12.44,11.71,12.44,1.62,0,3.23-.16,4.68-.65v-23.66h0Z"/></g></svg>