<?xml version="1.0" encoding="UTF-8"?><svg id="Capa_2" xmlns="http://www.w3.org/2000/svg" viewBox="0 0 130 130"><defs><style>.cls-1{fill:#f5f2ed;}.cls-2{fill:#f196bf;}</style></defs><g id="Capa_1-2"><rect class="cls-2" width="130" height="130" rx="24.61" ry="24.61"/><path class="cls-1" d="M94.45,38.75l-13.77-6.62c-1.6-.77-3.51-.45-4.76.81l-26.37,24.06-11.5-8.71c-1.07-.82-2.57-.75-3.56.15l-3.68,3.35c-1.22,1.1-1.22,3.02-.01,4.12l9.97,9.1-9.97,9.1c-1.21,1.1-1.21,3.02.01,4.12l3.68,3.35c1,.9,2.5.97,3.56.15l11.5-8.73,26.39,24.08c1.24,1.25,3.15,1.58,4.75.81l13.78-6.63c1.45-.7,2.36-2.16,2.36-3.77v-44.96c0-1.6-.93-3.07-2.37-3.77h0s0,0,0,0ZM80.1,80.2l-20.02-15.2,20.02-15.2v30.4Z"/></g></svg>