<?xml version="1.0" encoding="UTF-8"?><svg id="Capa_2" xmlns="http://www.w3.org/2000/svg" viewBox="0 0 130 130"><defs><style>.cls-1{fill:#f5f2ed;}.cls-2{fill:#83c0e8;}</style></defs><g id="Capa_1-2"><rect class="cls-2" width="130" height="130" rx="24.61" ry="24.61"/><path class="cls-1" d="M34.47,38.27c0-.4.16-.65.57-.65,3.07-.08,9.04-.24,14.94-.24,15.67,0,21.48,8.72,21.48,17.6,0,12.84-9.93,18.41-22.13,18.41h-5.09v16.56c0,.4-.16.65-.65.65h-8.48c-.4,0-.65-.16-.65-.57v-51.76h0ZM44.25,64.75c1.37.08,2.42.08,5.09.08,6.78,0,12.52-2.26,12.52-9.61,0-5.89-4.2-9.37-11.63-9.37-2.83,0-5.09.08-5.98.16v18.73h0Z"/><path class="cls-1" d="M86.16,50.78c.48,0,.73.16.89.65.4,1.05.73,3.07.81,4.84,2.74-3.39,7.35-6.3,12.92-6.3.48,0,.65.08.65.57v8.56c0,.4-.16.57-.73.57-5.73-.16-10.5,1.86-12.36,4.28v26c0,.48-.24.65-.73.65h-8.4c-.57,0-.73-.24-.73-.65v-27.86c0-3.47-.08-8.16-.4-10.82,0-.4.08-.48.48-.48h7.6Z"/></g></svg>