<?xml version="1.0" encoding="UTF-8"?><svg id="Capa_2" xmlns="http://www.w3.org/2000/svg" viewBox="0 0 130 130"><defs><style>.cls-1{fill:#f5f2ed;}.cls-2{fill:#f196bf;}</style></defs><g id="Capa_1-2"><rect class="cls-2" width="130" height="130" rx="24.61" ry="24.61"/><path class="cls-1" d="M44.57,76.62l-4.44,13.32c-.16.48-.4.65-.89.65h-8.08c-.48,0-.65-.24-.57-.81l16.63-47.32c.32-.81.57-1.62.73-4.36,0-.32.16-.57.48-.57h11.22c.4,0,.48.08.57.48l18.65,51.84c.08.48,0,.73-.48.73h-9.04c-.4,0-.65-.16-.81-.48l-4.68-13.49h-19.3ZM61.29,67.82c-1.69-5.33-5.49-16.56-7.1-22.21h-.08c-1.29,5.41-4.52,14.86-6.94,22.21h14.13Z"/><path class="cls-1" d="M84.22,39.8c0-3.31,2.34-5.57,5.57-5.57,3.47,0,5.49,2.34,5.49,5.57s-2.18,5.57-5.57,5.57-5.49-2.26-5.49-5.57ZM84.78,51.35c0-.4.24-.57.65-.57h8.56c.48,0,.65.08.65.57v38.6c0,.48-.16.65-.73.65h-8.32c-.57,0-.81-.24-.81-.73v-38.52h0Z"/></g></svg>