<?xml version="1.0" encoding="UTF-8"?><svg id="Capa_2" xmlns="http://www.w3.org/2000/svg" viewBox="0 0 130 130"><defs><style>.cls-1{fill:#f5f2ed;fill-rule:evenodd;}.cls-2{fill:#f196bf;}</style></defs><g id="Capa_1-2"><rect class="cls-2" width="130" height="130" rx="24.61" ry="24.61"/><path class="cls-1" d="M62.24,35.09h-8.13c-4.49,0-8.13,3.64-8.13,8.13s3.64,8.13,8.13,8.13h8.13v-16.26h0ZM62.24,29.58h13.64c7.54,0,13.64,6.11,13.64,13.64,0,4.45-2.13,8.4-5.42,10.89,3.29,2.49,5.42,6.44,5.42,10.89,0,7.54-6.11,13.64-13.64,13.64-3.05,0-5.86-1-8.13-2.69v10.82c0,7.54-6.11,13.64-13.64,13.64s-13.64-6.11-13.64-13.64c0-4.45,2.13-8.4,5.42-10.89-3.29-2.49-5.42-6.44-5.42-10.89s2.13-8.4,5.42-10.89c-3.29-2.49-5.42-6.44-5.42-10.89,0-7.54,6.11-13.64,13.64-13.64h8.13ZM67.76,35.09v16.26h8.13c4.49,0,8.13-3.64,8.13-8.13s-3.64-8.13-8.13-8.13h-8.13,0ZM54.11,73.13h8.13v-16.26h-8.13c-4.49,0-8.13,3.64-8.13,8.13s3.62,8.11,8.1,8.13h.03ZM45.98,86.78c0-4.48,3.62-8.11,8.1-8.13h8.17v8.13c0,4.49-3.64,8.13-8.13,8.13s-8.13-3.64-8.13-8.13ZM67.76,64.98c0-4.48,3.65-8.12,8.13-8.12s8.13,3.64,8.13,8.13-3.64,8.13-8.13,8.13-8.12-3.63-8.13-8.12v-.03h0Z"/></g></svg>