<svg width="40" height="42" viewBox="0 0 40 42" fill="none" xmlns="http://www.w3.org/2000/svg">
<path d="M14.15 39.4175L18.44 23.9286H21.69L25.85 39.4175L23.77 41.5H16.36L14.15 39.4175ZM4.4 34.6016L0.5 28.2238L1.28001 25.3603L16.88 20.9349L18.44 23.9286L7.26001 35.5127L4.4 34.6016ZM21.69 23.9286L23.25 20.9349L38.85 25.3603L39.5 28.2238L35.73 34.6016L32.87 35.5127L21.69 23.9286ZM1.28001 16.6397L0.5 13.7762L4.4 7.39841L7.26001 6.4873L18.44 18.0714L16.88 20.9349L1.28001 16.6397ZM21.69 18.0714L32.87 6.4873L35.73 7.39841L39.5 13.7762L38.85 16.6397L23.25 20.9349L21.69 18.0714ZM14.15 2.58254L16.36 0.5H23.77L25.85 2.58254L21.69 18.0714H18.44L14.15 2.58254Z" fill="#FB95C9"/>
</svg>
